<svg xmlns="http://www.w3.org/2000/svg">
	<rect x="0" y="36.7%" width="2" height="63.3%" rx="1.5" ry="1.5" fill="#ee924f"></rect><rect x="3" y="18.6%" width="2" height="81.4%" rx="1.5" ry="1.5" fill="#d1352b"></rect><rect x="6" y="14.2%" width="2" height="85.8%" rx="1.5" ry="1.5" fill="#d1352b"></rect><rect x="9" y="15.1%" width="2" height="84.9%" rx="1.5" ry="1.5" fill="#d1352b"></rect><rect x="12" y="2.6%" width="2" height="97.4%" rx="1.5" ry="1.5" fill="#a2202c"></rect><rect x="15" y="31.5%" width="2" height="68.5%" rx="1.5" ry="1.5" fill="#ee924f"></rect><rect x="18" y="3.9%" width="2" height="96.1%" rx="1.5" ry="1.5" fill="#a2202c"></rect><rect x="21" y="25.5%" width="2" height="74.5%" rx="1.5" ry="1.5" fill="#e95b3b"></rect><rect x="24" y="24.6%" width="2" height="75.4%" rx="1.5" ry="1.5" fill="#e95b3b"></rect><rect x="27" y="26.2%" width="2" height="73.8%" rx="1.5" ry="1.5" fill="#e95b3b"></rect><rect x="30" y="24.1%" width="2" height="75.9%" rx="1.5" ry="1.5" fill="#e95b3b"></rect><rect x="33" y="23.1%" width="2" height="76.9%" rx="1.5" ry="1.5" fill="#e95b3b"></rect><rect x="36" y="14.4%" width="2" height="85.6%" rx="1.5" ry="1.5" fill="#d1352b"></rect><rect x="39" y="0.0%" width="2" height="100.0%" rx="1.5" ry="1.5" fill="#a2202c"></rect>
</svg>