<svg xmlns="http://www.w3.org/2000/svg" viewBox="0 0 24 24" width="24"
     height="24">
    <path fill-rule="evenodd" clip-rule="evenodd"
          d="M12.426 22H11.6c-1.046 0-1.906-.365-2.477-1.099-.533-.685-.704-1.556-.723-2.365-.026-1.141.244-2.428.597-3.585H3v-1c0-2.665.714-5.025 1.6-6.861.876-1.817 1.955-3.19 2.762-3.86L7.639 3h8.353l1.016 10.998-.598.31c-.907.47-1.775 1.603-2.49 3.037-.696 1.397-1.155 2.894-1.338 3.844l-.156.811zm-1.574-2.182a18.913 18.913 0 011.278-3.365c.656-1.317 1.57-2.704 2.768-3.557L14.168 5h-5.78c-.538.538-1.31 1.556-1.987 2.959a14.042 14.042 0 00-1.362 4.992h6.819l-.525 1.36c-.52 1.348-.962 2.962-.933 4.178.014.607.143.98.302 1.185a.704.704 0 00.15.144z"></path>
    <path d="M21 14h-2L18 3h3v11z"></path>
</svg>