<svg xmlns="http://www.w3.org/2000/svg" viewBox="0 0 24 24" id="share-medium_9d67--inline" width="24" height="24">
    <path fill-rule="evenodd" clip-rule="evenodd"
          d="M12.582 13.956v3.322l7.003-5.32-7.003-5.303v3.078l-1.284.384c-3.902 1.168-5.793 4.158-6.714 6.898.805-.587 1.848-1.294 3.022-1.744l.024-.009c.72-.276 1.793-.687 2.806-.886l2.146-.42zM3.93 19.727a19.53 19.53 0 00-1.236 1.03l-.006.005a17.03 17.03 0 00-.163.15c-.2.186-.544.059-.523-.206a16.19 16.19 0 01.03-.323 17.353 17.353 0 01.159-1.178 18.533 18.533 0 01.255-1.251c.789-3.287 2.866-7.924 8.337-9.561v-3.5c0-.748.918-1.163 1.537-.695l9.327 7.062a.861.861 0 01.002 1.391l-9.328 7.087c-.619.47-1.538.054-1.538-.695v-2.9c-.586.115-1.217.322-1.8.534-.256.093-.503.188-.732.275-1.147.44-2.09 1.139-2.932 1.762-.242.18-.476.354-.704.513a19.624 19.624 0 00-.685.5z"></path>
</svg>