<svg xmlns="http://www.w3.org/2000/svg" viewBox="0 0 24 24" id="subscribe-medium_6e95--inline" width="24" height="24">
    <path fill-rule="evenodd" clip-rule="evenodd"
          d="M12.046 12.897C12.633 12.142 13 11.08 13 10c0-1.768-1.472-3-3-3s-3 1.232-3 3c0 1.08.367 2.143.954 2.897C8.524 13.63 9.228 14 10 14c.771 0 1.476-.37 2.046-1.103zM10 16c3 0 5-3 5-6s-2.5-5-5-5-5 2-5 5 2 6 5 6zM5 21H3c0-.263.085-.505.154-.666.08-.188.191-.385.329-.583a5.349 5.349 0 011.238-1.245C5.844 17.682 7.556 17 10 17s4.155.682 5.279 1.506c.556.408.963.847 1.238 1.245.138.198.249.395.329.583.07.161.154.403.154.666h-2s-.272-.418-.904-.881C13.344 19.568 12.056 19 10 19s-3.344.568-4.096 1.119c-.382.28-.758.67-.904.881z"></path>
    <path d="M19 3h-2v2h-2v2h2v2h2V7h2V5h-2V3z"></path>
</svg>