<svg fill="none" viewBox="0 0 40 40" xmlns="http://www.w3.org/2000/svg" xmlns:xlink="http://www.w3.org/1999/xlink"><mask id="a" height="40" maskUnits="userSpaceOnUse" width="40" x="0" y="0"><path d="m0 0h40v40h-40z" fill="#fff"/></mask><mask id="b" height="18" maskUnits="userSpaceOnUse" width="26" x="14" y="12"><path clip-rule="evenodd" d="m39.998 21c0-2.3872-.9519-4.6766-2.6346-6.3641-1.6923-1.6875-3.9807-2.6359-6.3654-2.6359-7.1634 0-16 0-16 0v18h16c2.3847 0 4.6731-.9484 6.3654-2.6359 1.6827-1.6875 2.6346-3.9769 2.6346-6.3641z" fill="#fff" fill-rule="evenodd"/></mask><mask id="c" height="14" maskUnits="userSpaceOnUse" width="18" x="0" y="27"><path clip-rule="evenodd" d="m.584841 33.7572c0-1.7479.692309-3.424 1.931539-4.6605 1.2323-1.2357 2.90768-1.9298 4.65922-1.9298h10.4123v13.05s-5.7392 0-10.54384 0c-1.71692 0-3.35769-.6802-4.56922-1.8914-1.21154-1.2112-1.889999-2.8539-1.889999-4.5667 0-.0008 0-.0016 0-.0016z" fill="#fff" fill-rule="evenodd"/></mask><g mask="url(#a)"><g clip-rule="evenodd" fill-rule="evenodd"><path d="m32.5355 15.071c4.1617 0 7.5355-3.3738 7.5355-7.53552 0-4.16173-3.3738-7.53548-7.5355-7.53548s-7.5355 3.37375-7.5355 7.53548c0 4.16172 3.3738 7.53552 7.5355 7.53552z" fill="#ffd952"/><path d="m39.998 21c0-2.3872-.9519-4.6766-2.6346-6.3641-1.6923-1.6875-3.9807-2.6359-6.3654-2.6359-7.1634 0-16 0-16 0v18h16c2.3847 0 4.6731-.9484 6.3654-2.6359 1.6827-1.6875 2.6346-3.9769 2.6346-6.3641z" fill="#acacac"/><path d="m39.998 21c0-2.3872-.9519-4.6766-2.6346-6.3641-1.6923-1.6875-3.9807-2.6359-6.3654-2.6359-7.1634 0-16 0-16 0v18h16c2.3847 0 4.6731-.9484 6.3654-2.6359 1.6827-1.6875 2.6346-3.9769 2.6346-6.3641z" fill="#d5d5d5"/></g><g mask="url(#b)"><path clip-rule="evenodd" d="m23.998 0v19h4.19c2.31 0 4.4-1.377 5.31-3.5s3-3.5 5.31-3.5h1.19v-12z" fill="#999" fill-rule="evenodd"/></g><path clip-rule="evenodd" d="m15.002 30.0012c8.2843 0 15-6.7158 15-15.0001 0-8.28425-6.7157-15.00000137-15-15.00000137s-15.00004688 6.71575137-15.00004688 15.00000137c0 8.2843 6.71574688 15.0001 15.00004688 15.0001z" fill="#d5d5d5" fill-rule="evenodd"/><path clip-rule="evenodd" d="m.584841 33.7572c0-1.7479.692309-3.424 1.931539-4.6605 1.2323-1.2357 2.90768-1.9298 4.65922-1.9298h10.4123v13.05s-5.7392 0-10.54384 0c-1.71692 0-3.35769-.6802-4.56922-1.8914-1.21154-1.2112-1.889999-2.8539-1.889999-4.5667 0-.0008 0-.0016 0-.0016z" fill="#d5d5d5" fill-rule="evenodd"/><path clip-rule="evenodd" d="m.584841 33.7572c0-1.7479.692309-3.424 1.931539-4.6605 1.2323-1.2357 2.90768-1.9298 4.65922-1.9298h10.4123v13.05s-5.7392 0-10.54384 0c-1.71692 0-3.35769-.6802-4.56922-1.8914-1.21154-1.2112-1.889999-2.8539-1.889999-4.5667 0-.0008 0-.0016 0-.0016z" fill="#ededed" fill-rule="evenodd"/><g mask="url(#c)"><path clip-rule="evenodd" d="m12.0977 19.4669v13.775s-1.1448 0-2.41924 0c-2.0232 0-3.85919-1.2107-4.65119-3.0761v-.0008c-.5184-1.2114-1.7064-1.9981-3.024-1.9981-.756 0-1.425595 0-1.425595 0v-8.7z" fill="#999" fill-rule="evenodd"/></g><path clip-rule="evenodd" d="m17.582 40.167c-5.5229 0-10.00002-4.4772-10.00002-10 0-5.5229 4.47712-10 10.00002-10s10 4.4771 10 10c0 5.5228-4.4771 10-10 10z" fill="#ededed" fill-rule="evenodd"/></g></svg>